<svg width="37" height="43" viewBox="0 0 37 43" fill="none" xmlns="http://www.w3.org/2000/svg">
<path d="M24.5244 20.2451C24.5244 18.9411 23.5464 17.8816 22.4053 17.8816C21.1828 17.8816 20.2048 18.9411 20.2048 20.2451C20.2048 21.4676 21.1828 22.5272 22.4053 22.5272C23.5464 22.5272 24.5244 21.4676 24.5244 20.2451ZM14.7442 17.8816C13.6031 17.8816 12.6251 18.9411 12.6251 20.2451C12.6251 21.4676 13.6031 22.5272 14.7442 22.5272C15.9667 22.5272 16.8632 21.4676 16.8632 20.2451C16.9447 18.9411 15.9667 17.8816 14.7442 17.8816ZM36.8311 4.67828C36.8311 2.31473 34.8751 0.358685 32.5115 0.358685H4.55645C2.1929 0.358685 0.318359 2.31473 0.318359 4.67828V32.8779C0.318359 35.3229 2.1929 37.1975 4.55645 37.1975H28.192L27.1324 33.3669C33.2451 38.9905 31.5335 37.5235 36.8311 42.0876V4.67828ZM30.8815 24.4832C30.8815 24.4832 29.0885 27.4988 24.4429 27.6618C24.4429 27.6618 23.7094 26.7652 23.0573 25.9502C25.8284 25.2167 26.8879 23.5052 26.8879 23.5052C25.9914 24.0757 25.1764 24.4017 24.4429 24.7277C19.9603 26.6022 14.9887 25.9502 11.4026 23.9942C11.4026 23.9127 10.9136 23.6682 10.5876 23.4237C10.5876 23.4237 11.5656 25.1352 14.2552 25.9502C13.6031 26.6837 12.8696 27.6618 12.8696 27.6618C8.22403 27.4988 6.51249 24.4832 6.51249 24.4832C6.51249 17.7186 9.44655 12.3394 9.44655 12.3394C12.4621 10.0574 15.3147 10.1389 15.3147 10.1389L15.5592 10.3834C11.8101 11.4429 10.0986 13.073 10.0986 13.073C10.0986 13.073 10.5061 12.8284 11.3211 12.5024C16.1297 10.3834 21.9163 10.3834 26.8879 13.073C26.8879 13.073 25.2579 11.5244 21.6718 10.4649L21.9978 10.1389C21.9978 10.1389 24.8504 10.0574 27.8659 12.3394C27.8659 12.3394 30.8815 17.7186 30.8815 24.4832Z" fill="#1C1C1B"/>
</svg>
