<svg width="41" height="40" viewBox="0 0 41 40" fill="none" xmlns="http://www.w3.org/2000/svg">
<path d="M13.9214 31.7964C13.9214 31.6334 13.7584 31.4704 13.5139 31.4704C13.2694 31.4704 13.1064 31.6334 13.1064 31.7964C13.1064 31.9594 13.2694 32.1224 13.5139 32.0409C13.7584 32.0409 13.9214 31.9594 13.9214 31.7964ZM11.3949 31.3889C11.3949 31.5519 11.5579 31.7964 11.8024 31.7964C11.9654 31.8779 12.2099 31.7964 12.2914 31.6334C12.2914 31.4704 12.2099 31.3074 11.9654 31.2259C11.7209 31.1444 11.4764 31.2259 11.3949 31.3889ZM15.0624 31.3074C14.8179 31.3074 14.6549 31.4704 14.6549 31.7149C14.6549 31.8779 14.8994 31.9594 15.1439 31.8779C15.3884 31.7964 15.5515 31.7149 15.47 31.5519C15.47 31.3889 15.2254 31.2259 15.0624 31.3074ZM20.3601 0.0106989C9.11282 0.0106989 0.473633 8.64988 0.473633 19.8971C0.473633 28.9438 6.09725 36.6865 14.2474 39.4575C15.3069 39.6205 15.633 38.9685 15.633 38.4795C15.633 37.909 15.633 35.1379 15.633 33.4264C15.633 33.4264 9.92783 34.6489 8.70531 30.9814C8.70531 30.9814 7.80879 28.6178 6.50476 28.0473C6.50476 28.0473 4.63022 26.7433 6.58626 26.7433C6.58626 26.7433 8.62381 26.9063 9.76483 28.8623C11.5579 32.0409 14.4919 31.1444 15.7145 30.5738C15.8775 29.2698 16.3665 28.3733 17.0185 27.8028C12.4544 27.3138 7.80879 26.6618 7.80879 18.8376C7.80879 16.5556 8.4608 15.496 9.76483 14.029C9.52032 13.4585 8.86831 11.3394 10.0093 8.48688C11.6394 7.99787 15.633 10.6874 15.633 10.6874C17.263 10.1984 18.9745 10.0354 20.6861 10.0354C22.4791 10.0354 24.1906 10.1984 25.8207 10.6874C25.8207 10.6874 29.7328 7.91637 31.4443 8.48688C32.5853 11.3394 31.8518 13.4585 31.6888 14.029C32.9928 15.496 33.8078 16.5556 33.8078 18.8376C33.8078 26.6618 28.9992 27.3138 24.4351 27.8028C25.1687 28.4548 25.8207 29.6773 25.8207 31.6334C25.8207 34.3229 25.7392 37.746 25.7392 38.398C25.7392 38.9685 26.1467 39.6205 27.2062 39.376C35.3564 36.6865 40.8985 28.9438 40.8985 19.8971C40.8985 8.64988 31.6888 0.0106989 20.3601 0.0106989ZM8.3793 28.1288C8.2163 28.2103 8.2978 28.4548 8.3793 28.6178C8.5423 28.6993 8.70531 28.7808 8.86831 28.6993C8.94981 28.6178 8.94981 28.3733 8.78681 28.2103C8.62381 28.1288 8.4608 28.0473 8.3793 28.1288ZM7.48278 27.4768C7.40128 27.6398 7.48278 27.7213 7.64579 27.8028C7.80879 27.8843 7.97179 27.8843 8.05329 27.7213C8.05329 27.6398 7.97179 27.5583 7.80879 27.4768C7.64579 27.3953 7.56428 27.3953 7.48278 27.4768ZM10.0908 30.4108C10.0093 30.4923 10.0093 30.7369 10.2538 30.8999C10.4168 31.0629 10.6613 31.1444 10.7429 30.9814C10.8244 30.8999 10.8244 30.6553 10.6613 30.4923C10.4983 30.3293 10.2538 30.2478 10.0908 30.4108ZM9.19432 29.1883C9.03131 29.2698 9.03131 29.5143 9.19432 29.6773C9.35732 29.8403 9.52032 29.9218 9.68333 29.8403C9.76483 29.7588 9.76483 29.5143 9.68333 29.3513C9.52032 29.1883 9.35732 29.1068 9.19432 29.1883Z" fill="#1C1C1B"/>
</svg>
