<svg width="38" height="37" viewBox="0 0 38 37" fill="none" xmlns="http://www.w3.org/2000/svg">
<path d="M8.9949 36.8715V12.5024H1.41524V36.8715H8.9949ZM5.16432 9.24237C7.60937 9.24237 9.56541 7.20483 9.56541 4.75978C9.56541 2.39623 7.60937 0.440187 5.16432 0.440187C2.80077 0.440187 0.844727 2.39623 0.844727 4.75978C0.844727 7.20483 2.80077 9.24237 5.16432 9.24237ZM37.276 36.8715H37.3575V23.5052C37.3575 16.985 35.8905 11.9319 28.2293 11.9319C24.5617 11.9319 22.1167 13.9695 21.0572 15.844H20.9757V12.5024H13.722V36.8715H21.3017V24.8092C21.3017 21.6306 21.8722 18.6151 25.7843 18.6151C29.6963 18.6151 29.7778 22.2011 29.7778 25.0537V36.8715H37.276Z" fill="#1C1C1B"/>
</svg>
